<svg width="1200" height="700" viewBox="0 0 1200 700" fill="none" xmlns="http://www.w3.org/2000/svg">
  <defs>
    <linearGradient id="bg" x1="0" y1="0" x2="1" y2="1">
      <stop offset="0%" stop-color="#1e3a8a" />
      <stop offset="100%" stop-color="#2563eb" />
    </linearGradient>
    <linearGradient id="card" x1="0" y1="0" x2="1" y2="1">
      <stop offset="0%" stop-color="#ffffff" stop-opacity="0.96" />
      <stop offset="100%" stop-color="#f3f4f6" />
    </linearGradient>
  </defs>
  <rect width="1200" height="700" rx="36" fill="url(#bg)" />
  <rect x="80" y="80" width="1040" height="540" rx="28" fill="url(#card)" />
  <rect x="120" y="120" width="960" height="50" rx="12" fill="#1f2937" />
  <text x="145" y="155" fill="#ffffff" font-family="Inter, sans-serif" font-size="22" font-weight="700">Task Manager</text>
  <rect x="120" y="200" width="420" height="90" rx="16" fill="#e5e7eb" />
  <rect x="150" y="228" width="340" height="24" rx="12" fill="#1f2937" />
  <rect x="150" y="264" width="240" height="18" rx="10" fill="#4b5563" />
  <rect x="120" y="314" width="960" height="260" rx="20" fill="#f8fafc" stroke="#e5e7eb" stroke-width="1" />
  <g opacity="0.92">
    <rect x="160" y="340" width="920" height="70" rx="16" fill="#ffffff" stroke="#d1d5db" stroke-width="1" />
    <rect x="190" y="364" width="380" height="18" rx="9" fill="#111827" />
    <rect x="190" y="392" width="260" height="14" rx="7" fill="#6b7280" />
    <rect x="720" y="364" width="120" height="36" rx="18" fill="#dbeafe" />
    <text x="750" y="388" fill="#1d4ed8" font-family="Inter, sans-serif" font-size="14" font-weight="600">To Do</text>
  </g>
  <g opacity="0.92">
    <rect x="160" y="430" width="920" height="70" rx="16" fill="#ffffff" stroke="#d1d5db" stroke-width="1" />
    <rect x="190" y="454" width="360" height="18" rx="9" fill="#111827" />
    <rect x="190" y="482" width="280" height="14" rx="7" fill="#6b7280" />
    <rect x="720" y="454" width="140" height="36" rx="18" fill="#fef3c7" />
    <text x="750" y="478" fill="#b45309" font-family="Inter, sans-serif" font-size="14" font-weight="600">In Progress</text>
  </g>
  <g opacity="0.92">
    <rect x="160" y="520" width="920" height="70" rx="16" fill="#ffffff" stroke="#d1d5db" stroke-width="1" />
    <rect x="190" y="544" width="330" height="18" rx="9" fill="#111827" />
    <rect x="190" y="572" width="240" height="14" rx="7" fill="#6b7280" />
    <rect x="720" y="544" width="110" height="36" rx="18" fill="#d1fae5" />
    <text x="748" y="568" fill="#166534" font-family="Inter, sans-serif" font-size="14" font-weight="600">Done</text>
  </g>
  <rect x="640" y="128" width="240" height="38" rx="14" fill="#e2e8f0" />
  <text x="658" y="154" fill="#0f172a" font-family="Inter, sans-serif" font-size="16" font-weight="600">Add new task</text>
  <rect x="900" y="128" width="120" height="38" rx="14" fill="#2563eb" />
  <text x="922" y="154" fill="#ffffff" font-family="Inter, sans-serif" font-size="16" font-weight="600">Submit</text>
</svg>